# xmcd
#
# Track frame offsets: 
#        150
#        10957
#        23815
#        37130
#        49437
#        62257
#        72895
#        84157
#        96707
#        108047
#        119305
#        130415
#        141820
#        153540
#        164452
#        176695
#        184780
#        198452
#
# Disc length: 2797 seconds
#
# Revision: 2
# Processed by: cddbd v1.5.2PL0 Copyright (c) Steve Scherf et al.
# Submitted via: ExactAudioCopy v0.99pb5
#
DISCID=fc0aeb12
DTITLE=Various Artist - The History Of Country Music - The Fifties - Volume 2
DTITLE=Various Artist - CD 1
DYEAR=1993
DGENRE=Country
TTITLE0=Autry Inman - That's alright
TTITLE1=Bobby Helms - Fraulein
TTITLE2=Hank Snow - I don't hurt anymore
TTITLE3=Lefty Frizzell - I love you a thousand ways
TTITLE4=Webb Pierce - Love love love
TTITLE5=Jim Reeves - He'll have to go
TTITLE6=Marty Robbins - A white sport coat (and a pink carnation)
TTITLE7=Porter Wagoner - A satisfied mind
TTITLE8=Don Gibson - Oh lonesome me
TTITLE9=Johnny Horton - The battle of New Orleans
TTITLE10=Eddy Arnold - A full time job
TTITLE11=Carl Smith - Loose talk
TTITLE12=Hank Williams - Take these chains from my heart
TTITLE13=Cuttin' Capers With The Carlisles - No help wanted
TTITLE14=Ray Price - The same old me
TTITLE15=Johnny Cash - Guess things happen that way
TTITLE16=Ernest Tubb and Red Foley - Goodnight Irene
TTITLE17=Jimmy C. Newman - Cry cry darling
EXTD=
EXTT0=
EXTT1=
EXTT2=
EXTT3=
EXTT4=
EXTT5=
EXTT6=
EXTT7=
EXTT8=
EXTT9=
EXTT10=
EXTT11=
EXTT12=
EXTT13=
EXTT14=
EXTT15=
EXTT16=
EXTT17=
PLAYORDER=
